# xmcd
#
# Track frame offsets: 
#        150
#        2900
#        22650
#        43350
#        65875
#        84750
#        105725
#        125225
#        147750
#        168125
#        188950
#        199425
#
# Disc length: 2936 seconds
#
# Revision: 2
# Processed by: cddbd v1.5.2PL0 Copyright (c) Steve Scherf et al.
# Submitted via: ExactAudioCopy v1.0b3
#
DISCID=a70b760c
DTITLE=林憶蓮 - 都市觸覺 Part III Faces And Places
DYEAR=1990
DGENRE=Pop
TTITLE0=序幕
TTITLE1=傾斜
TTITLE2=你令我性感
TTITLE3=埃及玫瑰
TTITLE4=風笑痴
TTITLE5=微雨撲巴黎
TTITLE6=夜生活
TTITLE7=前塵
TTITLE8=匆匆
TTITLE9=都市心
TTITLE10=流聲掠影
TTITLE11=再不在乎
EXTD=YEAR: 2009
EXTT0=
EXTT1=
EXTT2=
EXTT3=
EXTT4=
EXTT5=
EXTT6=
EXTT7=
EXTT8=
EXTT9=
EXTT10=
EXTT11=
PLAYORDER=
